<?xml version="1.0" encoding="UTF-8" standalone="no" ?>
<!DOCTYPE svg PUBLIC "-//W3C//DTD SVG 1.1//EN" "http://www.w3.org/Graphics/SVG/1.1/DTD/svg11.dtd">
<svg xmlns="http://www.w3.org/2000/svg" xmlns:xlink="http://www.w3.org/1999/xlink" version="1.1" width="1440" height="960" viewBox="0 0 1920 1280" xml:space="preserve">
<desc>Created with Fabric.js 4.6.0</desc>
<defs>
</defs>
<g transform="matrix(-0.87 0 0 0.87 1235.21 827.6)" id="Rd8gfla_I_X5LfhtbWNz7"  >
<g style="" vector-effect="non-scaling-stroke"   >
		<g transform="matrix(1 0 0 1 0 0)" id="J5LN5QfzciT3Haj9L5gIc"  >
<path style="stroke: none; stroke-width: 1; stroke-dasharray: none; stroke-linecap: butt; stroke-dashoffset: 0; stroke-linejoin: miter; stroke-miterlimit: 4; fill: rgb(179,181,179); fill-rule: nonzero; opacity: 1;" vector-effect="non-scaling-stroke"  transform=" translate(-40.02, -40.01)" d="M 70.2 0.8 L 5.3 24.5 C 0.6 26.4 0 29.2 0 30.7 C 0 32.2 0.8 35 5.6 36.6 L 24.200000000000003 43 L 4.6 62.5 C 1.2999999999999998 65.8 1.2999999999999998 71.1 4.6 74.4 L 5.6 75.4 C 8.8 78.60000000000001 14.299999999999999 78.60000000000001 17.5 75.4 L 37 55.8 L 43.4 74.4 C 45.1 79.30000000000001 47.9 80 49.4 80 L 49.4 80 C 50.9 80 53.6 79.3 55.5 74.6 L 79.2 9.8 C 80.7 6.1000000000000005 79.9 3.700000000000001 79 2.4000000000000004 C 77.3 0 73.8 -0.7 70.2 0.8 z" stroke-linecap="round" />
</g>
		<g transform="matrix(1 0 0 1 0.58 -0.61)" id="eEQnHK3lVT70jeHIx_S77"  >
<path style="stroke: none; stroke-width: 1; stroke-dasharray: none; stroke-linecap: butt; stroke-dashoffset: 0; stroke-linejoin: miter; stroke-miterlimit: 4; fill: rgb(255,255,255); fill-rule: nonzero; opacity: 1;" vector-effect="non-scaling-stroke"  transform=" translate(-40.6, -39.4)" d="M 7.8 30.5 C 7.8 30.5 73.39999999999999 6.600000000000001 73.39999999999999 6.600000000000001 C 73.39999999999999 6.600000000000001 49.49999999999999 72.19999999999999 49.49999999999999 72.19999999999999 C 49.49999999999999 72.19999999999999 41.49999999999999 49.39999999999999 41.099999999999994 48.499999999999986 C 40.699999999999996 47.59999999999999 39.699999999999996 46.899999999999984 38.599999999999994 46.79999999999998 C 37.599999999999994 46.69999999999998 36.599999999999994 47.09999999999998 35.89999999999999 47.69999999999998 L 12.9 70.8 C 12.200000000000001 71.5 10.9 71.5 10.2 70.8 L 9.2 69.8 C 8.5 69.1 8.5 67.8 9.2 67.1 L 32.3 44 C 33 43.3 33.3 42.3 33.199999999999996 41.2 C 33.099999999999994 40.2 32.3 39.1 31.099999999999994 38.7 C 29.9 38.2 7.8 30.5 7.8 30.5 z" stroke-linecap="round" />
</g>
</g>
</g>
<g transform="matrix(1 0 0 1 1676.77 646.46)" id="qZ_-oFknuyoJB5WRgujBD"  >
<path style="stroke: rgb(179,181,179); stroke-width: 5; stroke-dasharray: none; stroke-linecap: butt; stroke-dashoffset: 0; stroke-linejoin: miter; stroke-miterlimit: 4; fill: rgb(255,255,255); fill-opacity: 0; fill-rule: nonzero; opacity: 1;" vector-effect="non-scaling-stroke"  transform=" translate(0, 0)" d="M -415.55556 210.90578 C -384.29017 246.47365 -375.73229000000003 280.29589999999996 -317.61264 280.29589999999996 C -259.49298 280.29589999999996 -260.00001 164.23148999999995 -103.33333999999999 134.23148999999995 C 53.33333000000002 104.23148999999995 168.92655 101.59192999999995 146.66666 -80.15948000000006 C 124.40677000000001 -261.91089000000005 408.88888 -342.3817 415.55555000000004 -225.71504000000007" stroke-linecap="round" />
</g>
<g transform="matrix(1.02 -0.18 0.18 1.02 461.72 361.22)" id="bWK0CVFkVI19Yue4oYvq4"  >
<path style="stroke: rgb(179,181,179); stroke-width: 5; stroke-dasharray: none; stroke-linecap: butt; stroke-dashoffset: 0; stroke-linejoin: miter; stroke-miterlimit: 4; fill: rgb(255,255,255); fill-opacity: 0; fill-rule: nonzero; opacity: 1;" vector-effect="non-scaling-stroke"  transform=" translate(0, 0)" d="M -583.87097 242.02685 C -583.87097 242.02685 -506.45162000000005 377.51072 -322.58065000000005 296.86556 C -138.70968000000005 216.2204 -296.77420000000006 32.34943000000004 -141.93549000000004 -16.03766999999999 C 12.903219999999948 -64.42477 187.09676999999996 96.86556 335.48385999999994 -77.32799 C 483.87095999999997 -251.52154 583.87096 -322.48928 583.87096 -322.48928" stroke-linecap="round" />
</g>
</svg>